<svg width="19" height="27" viewBox="0 0 19 27" fill="none" xmlns="https://www.w3.org/2000/svg">
<path d="M14.4837 5.07113V4.48452C14.4837 3.81841 13.9431 3.27866 13.2778 3.27866H11.2987C11.4636 2.98075 11.5573 2.61172 11.5573 2.23682C11.5565 1.00418 10.554 0 9.32218 0C8.09038 0 7.0887 1.00418 7.0887 2.23682C7.0887 2.61172 7.18243 2.98075 7.34728 3.27866H5.72385C5.05774 3.27866 4.51799 3.81841 4.51799 4.48452V5.07113H1.82845C0.81841 5.07113 0 5.89038 0 6.90042V24.9305C0 25.9406 0.81841 26.7607 1.82845 26.7607H17.1707C18.1808 26.7607 19 25.9414 19 24.9305V6.90042C19 5.89038 18.1808 5.07113 17.1707 5.07113H14.4837ZM7.99163 2.23766C7.99163 1.50293 8.58829 0.903766 9.32134 0.903766C10.0561 0.903766 10.6527 1.50293 10.6527 2.23766C10.6527 2.65774 10.4569 3.01841 10.1506 3.2795H8.49289C8.18745 3.01757 7.99163 2.65774 7.99163 2.23766ZM17.1707 23.8427C17.1707 24.4636 16.6669 24.9674 16.046 24.9674H2.95314C2.33222 24.9674 1.82845 24.4636 1.82845 23.8427V8.02511C1.82845 7.40335 2.33222 6.90042 2.95314 6.90042H4.51632C4.51632 7.39498 4.91716 7.79665 5.41172 7.79665H13.5866C14.082 7.79665 14.482 7.39582 14.482 6.90042H16.046C16.6661 6.90042 17.1707 7.40418 17.1707 8.02511V23.8427Z" fill="#515151"/>
<path d="M5.20077 12.5498C6.07842 12.5498 6.78989 11.8383 6.78989 10.9606C6.78989 10.083 6.07842 9.37152 5.20077 9.37152C4.32312 9.37152 3.61165 10.083 3.61165 10.9606C3.61165 11.8383 4.32312 12.5498 5.20077 12.5498Z" fill="#515151"/>
<path d="M14.2418 10.0737H8.8225C8.32376 10.0737 7.91874 10.4712 7.91874 10.9699C7.91874 11.4687 8.32292 11.8662 8.8225 11.8662H14.2434C14.7422 11.8662 15.1455 11.4687 15.1455 10.9699C15.1455 10.4712 14.7413 10.0737 14.2418 10.0737Z" fill="#515151"/>
<path d="M5.20077 17.0577C6.07842 17.0577 6.78989 16.3462 6.78989 15.4686C6.78989 14.5909 6.07842 13.8795 5.20077 13.8795C4.32312 13.8795 3.61165 14.5909 3.61165 15.4686C3.61165 16.3462 4.32312 17.0577 5.20077 17.0577Z" fill="#515151"/>
<path d="M14.2418 14.5532H8.8225C8.32376 14.5532 7.91874 14.97 7.91874 15.4687C7.91874 15.9674 8.32292 16.3825 8.8225 16.3825H14.2434C14.7422 16.3825 15.1455 15.9674 15.1455 15.4687C15.1455 14.97 14.7413 14.5532 14.2418 14.5532Z" fill="#515151"/>
<path d="M5.20075 21.8745C6.07793 21.8745 6.78903 21.1634 6.78903 20.2862C6.78903 19.409 6.07793 18.6979 5.20075 18.6979C4.32356 18.6979 3.61246 19.409 3.61246 20.2862C3.61246 21.1634 4.32356 21.8745 5.20075 21.8745Z" fill="#515151"/>
<path d="M14.2418 19.3682H8.8225C8.32376 19.3682 7.91874 19.785 7.91874 20.2837C7.91874 20.7825 8.32292 21.1975 8.8225 21.1975H14.2434C14.7422 21.1975 15.1455 20.7816 15.1455 20.2837C15.1455 19.785 14.7413 19.3682 14.2418 19.3682Z" fill="#515151"/>
</svg>
