<svg width="25" height="25" viewBox="0 0 25 25" fill="none" xmlns="http://www.w3.org/2000/svg">
<path d="M4.03998 12.5015L12.6336 2.78597C13.2692 2.15041 13.2692 1.1159 12.6336 0.480334C11.998 -0.155229 10.9635 -0.155229 10.328 0.480334L0.732273 11.3244C0.408012 11.6487 0.255575 12.0735 0.25884 12.4983C0.255575 12.923 0.408012 13.3512 0.732273 13.6754L10.3279 24.526C10.9634 25.1584 11.9979 25.1584 12.6335 24.526C13.2691 23.8936 13.2691 22.8527 12.6335 22.2204L4.03998 12.5015Z" fill="#6A6A6A"/>
<path d="M15.6689 12.5011L24.256 2.78557C24.9014 2.14675 24.9014 1.11224 24.2625 0.476672C23.6301 -0.158891 22.5892 -0.158891 21.9569 0.476672L12.3613 11.324C12.0371 11.6483 11.8814 12.0731 11.8879 12.4979C11.8846 12.9226 12.0371 13.3508 12.3613 13.675L21.9537 24.5256C22.5926 25.158 23.6303 25.158 24.2594 24.5256C24.8982 23.8932 24.8982 22.8523 24.2594 22.22L15.6689 12.5011Z" fill="#6A6A6A"/>
</svg>
