<svg width="25" height="25" viewBox="0 0 25 25" fill="none" xmlns="http://www.w3.org/2000/svg">
<g clip-path="url(#clip0)">
<path d="M20.9599 12.4987L12.3663 22.2143C11.7307 22.8498 11.7307 23.8843 12.3663 24.5199C13.0018 25.1555 14.0364 25.1555 14.6719 24.5199L24.2676 13.6759C24.5919 13.3516 24.7443 12.9267 24.741 12.502C24.7443 12.0772 24.5919 11.6491 24.2676 11.3248L14.672 0.474226C14.0365 -0.158175 13.0019 -0.158175 12.3664 0.474226C11.7308 1.10663 11.7308 2.14757 12.3664 2.77986L20.9599 12.4987Z" fill="#6A6A6A"/>
<path d="M9.33108 12.4989L0.743992 22.2144C0.0986338 22.8533 0.0986347 23.8878 0.737462 24.5233C1.36986 25.1589 2.4108 25.1589 3.0431 24.5233L12.6387 13.676C12.9629 13.3517 13.1186 12.9269 13.1121 12.5021C13.1154 12.0774 12.9629 11.6492 12.6387 11.325L3.04626 0.474375C2.40743 -0.158024 1.36966 -0.158024 0.740625 0.474375C0.101798 1.10678 0.101798 2.14771 0.740625 2.78001L9.33108 12.4989Z" fill="#6A6A6A"/>
</g>
<defs>
<clipPath id="clip0">
<rect width="25" height="25" fill="white" transform="translate(25 25) rotate(-180)"/>
</clipPath>
</defs>
</svg>
