<svg width="17" height="27" viewBox="0 0 17 27" fill="none" xmlns="https://www.w3.org/2000/svg">
<path d="M16.529 14.7044C16.529 11.2244 14.6537 8.20438 11.9244 6.72782C11.7182 5.25353 10.4528 4.11464 8.92293 4.11464C8.58127 4.11464 8.25371 4.17395 7.94698 4.27828V2.92576C7.94698 2.59143 7.69398 2.31882 7.36926 2.2827V1.22825C7.36926 1.20339 7.3642 1.17998 7.36207 1.15596H7.88711C8.12597 1.15596 8.32026 0.961713 8.32026 0.722259V0.43342C8.32026 0.193966 8.12601 0 7.88711 0H4.53967C4.30026 0 4.10597 0.193966 4.10597 0.43342V0.722259C4.10597 0.961713 4.30021 1.15596 4.53967 1.15596H5.06416C5.06175 1.17998 5.05678 1.20335 5.05678 1.22825V2.28298C4.73224 2.3191 4.47925 2.59115 4.47925 2.92604V12.4627C4.47925 12.8157 4.76043 13.1012 5.11127 13.1114V17.4839H5.13371C5.23549 17.6076 5.6799 17.8092 6.21274 17.8092C6.74655 17.8092 7.19096 17.6076 7.29247 17.4839H7.31435V13.1114C7.66505 13.1018 7.94698 12.816 7.94698 12.4629V10.0202C8.25371 10.1245 8.58127 10.1838 8.92293 10.1838C10.0111 10.1838 10.9643 9.6061 11.5003 8.74338C13.3451 9.97386 14.5782 12.1854 14.5782 14.7044C14.5782 16.2664 14.1036 17.7104 13.3045 18.8754L11.1264 19.7453V19.6885H2.49266V20.6274H11.1265V20.212L12.7703 19.5553C11.5997 20.8727 9.95865 21.6947 8.14373 21.6947V21.7108H6.21339V23.9504H0V26.5514H13.5468V23.9504H10.1151V23.3936C13.7902 22.4454 16.529 18.9106 16.529 14.7044ZM8.92297 9.53353C7.6082 9.53353 6.53863 8.464 6.53863 7.14932C6.53863 5.83469 7.6082 4.76512 8.92297 4.76512C9.9643 4.76512 10.8498 5.43743 11.1739 6.37044C10.8898 6.25271 10.5996 6.15009 10.3017 6.06566C9.98063 5.65709 9.48289 5.3938 8.92242 5.3938C7.95277 5.3938 7.16699 6.17991 7.16699 7.14932C7.16699 8.11878 7.9531 8.90461 8.92242 8.90461C9.52156 8.90461 10.0501 8.60362 10.3675 8.14507C10.5637 8.22371 10.7549 8.31251 10.9412 8.41077C10.52 9.0836 9.774 9.53353 8.92297 9.53353Z" fill="#515151"/>
</svg>
