<svg width="19" height="17" viewBox="0 0 19 17" fill="none" xmlns="https://www.w3.org/2000/svg">
<path d="M15.4619 9.99771H9.48509L8.61022 10.8634H10.2838V16.1343H6.20721C4.96595 16.1343 3.92347 15.2887 3.62936 14.1499C3.59774 14.1505 3.56611 14.1521 3.53426 14.1521C3.26049 14.1521 2.98693 14.1257 2.71722 14.0736C2.99529 15.7315 4.45386 17 6.20699 17H15.4617C17.4127 17 19 15.4295 19 13.499C19 11.5684 17.4129 9.99771 15.4619 9.99771ZM14.6557 16.0903H11.7261C11.519 16.0903 11.3512 15.9242 11.3512 15.7192C11.3512 15.5142 11.519 15.3482 11.7261 15.3482H14.6557C14.8628 15.3482 15.0307 15.5142 15.0307 15.7192C15.0307 15.9242 14.8628 16.0903 14.6557 16.0903ZM16.1504 16.0903H16.0049C15.7978 16.0903 15.63 15.9242 15.63 15.7192C15.63 15.5142 15.7978 15.3482 16.0049 15.3482H16.1504C16.3575 15.3482 16.5254 15.5142 16.5254 15.7192C16.5254 15.9242 16.3575 16.0903 16.1504 16.0903ZM12.5802 1.02172C11.9145 0.362777 11.0259 0 10.0783 0C9.13067 0 8.24225 0.362777 7.57633 1.02172L1.03231 7.49717C0.366618 8.15589 0 9.035 0 9.97268C0 10.9104 0.366618 11.7895 1.03254 12.4484C1.72241 13.1311 2.62822 13.4721 3.53449 13.4721C4.44053 13.4721 5.3468 13.1308 6.03644 12.4484L12.5805 5.97297C13.2464 5.31402 13.613 4.43491 13.613 3.49723C13.613 2.55956 13.2461 1.68044 12.5802 1.02172ZM5.41773 11.8362C4.37909 12.8637 2.68944 12.8637 1.65125 11.8362C1.15068 11.3409 0.874869 10.679 0.874869 9.97268C0.874869 9.26635 1.15068 8.6045 1.65125 8.10917L4.53382 5.2568L8.3003 8.98382L5.41773 11.8362ZM11.3602 5.89362L9.28879 7.94332C9.2156 8.01574 9.1196 8.05195 9.0236 8.05195C8.9276 8.05195 8.83159 8.01574 8.75841 7.94332C8.61203 7.79848 8.61203 7.56355 8.75841 7.41871L10.83 5.36901C10.9764 5.22417 11.2138 5.22417 11.3602 5.36901C11.5066 5.51385 11.5066 5.74877 11.3602 5.89362ZM12.4171 4.84775L12.3144 4.94946C12.2412 5.02188 12.1452 5.05809 12.0492 5.05809C11.9532 5.05809 11.8574 5.02188 11.784 4.94946C11.6376 4.80462 11.6376 4.56969 11.784 4.42485L11.8867 4.32315C12.0331 4.17831 12.2705 4.17831 12.4169 4.32315C12.5635 4.46799 12.5635 4.70291 12.4171 4.84775Z" fill="#515151"/>
</svg>
